<?xml version="1.0" standalone="no"?>
<!DOCTYPE svg PUBLIC "-//W3C//DTD SVG 20010904//EN"
 "http://www.w3.org/TR/2001/REC-SVG-20010904/DTD/svg10.dtd">
<svg version="1.0" xmlns="http://www.w3.org/2000/svg"
 width="225.000000pt" height="225.000000pt" viewBox="0 0 225.000000 225.000000"
 preserveAspectRatio="xMidYMid meet">

<g transform="translate(0.000000,225.000000) scale(0.100000,-0.100000)"
fill="#000000" stroke="none">
<path d="M545 1741 c-55 -3 -182 -6 -282 -6 -101 0 -183 -3 -183 -7 0 -4 15
-15 33 -24 26 -14 57 -17 162 -15 72 1 138 4 148 7 9 3 17 1 17 -4 0 -9 -98
-25 -234 -38 -59 -6 -67 -9 -52 -20 35 -25 93 -26 206 -4 62 12 114 20 116 17
5 -5 -104 -40 -174 -56 -48 -10 -59 -17 -48 -28 15 -15 113 -4 181 21 38 14
71 24 72 22 4 -4 -153 -76 -167 -76 -5 0 -10 -4 -10 -10 0 -20 86 -10 136 15
27 14 50 25 51 25 1 0 -20 -29 -46 -64 -27 -35 -61 -86 -77 -114 l-28 -49 -87
-6 c-138 -10 -218 -54 -254 -139 -32 -79 -8 -151 64 -188 114 -58 226 2 318
170 20 36 38 67 39 69 2 2 27 0 57 -3 l53 -7 -8 -70 c-9 -79 3 -179 27 -215 8
-13 28 -30 43 -38 l28 -15 -4 84 c-4 72 7 181 24 237 3 10 20 19 44 23 63 11
94 64 70 120 -9 20 -9 20 -15 -2 -6 -19 -60 -52 -69 -42 -3 2 23 85 56 185 90
266 93 262 -207 245z m-68 -47 c-3 -3 -12 -4 -19 -1 -8 3 -5 6 6 6 11 1 17 -2
13 -5z m165 -186 c-28 -73 -53 -148 -57 -165 -7 -35 -20 -39 -84 -27 l-31 6
47 91 c43 84 160 244 170 233 2 -2 -18 -64 -45 -138z m-316 -261 c9 -9 -61
-129 -93 -158 -58 -54 -102 -63 -140 -27 -40 38 -26 120 26 155 42 27 103 43
154 39 26 -2 50 -6 53 -9z"/>
<path d="M966 1698 c-8 -24 -38 -98 -65 -165 -89 -218 -128 -405 -102 -486 14
-41 53 -77 84 -77 19 0 90 65 114 105 11 18 12 17 12 -13 1 -39 47 -92 80 -92
28 0 88 55 114 104 l21 41 6 -40 c8 -54 26 -84 57 -96 47 -18 87 6 133 79 l27
44 7 -32 c3 -18 21 -47 40 -66 43 -43 79 -45 114 -5 l27 28 26 -28 c15 -16 36
-29 48 -29 34 0 89 58 128 137 l37 74 12 -28 c10 -24 9 -30 -6 -43 -44 -38
-51 -86 -17 -125 33 -38 92 -38 125 1 21 23 24 36 20 80 -4 49 -3 53 26 69 45
26 96 76 96 95 0 31 -13 30 -51 -5 -21 -18 -52 -41 -69 -50 -30 -15 -30 -15
-40 10 -25 65 -1 144 55 181 30 20 32 39 4 54 -23 13 -73 5 -107 -18 -32 -21
-62 -84 -62 -129 0 -67 -88 -223 -126 -223 -20 0 -18 42 6 125 31 108 24 161
-28 208 -84 76 -207 6 -253 -143 -21 -70 -74 -166 -100 -183 -9 -6 -24 -7 -34
-3 -15 6 -17 15 -11 68 6 63 65 250 109 351 l26 57 83 0 c101 0 158 -14 165
-41 6 -21 23 -26 23 -6 0 6 3 22 6 34 5 16 -2 30 -24 53 -30 29 -33 30 -125
30 l-95 0 11 29 c14 37 -4 76 -45 97 -26 13 -29 13 -35 -3 -3 -10 -16 -43 -29
-73 l-22 -55 -84 -6 c-87 -7 -151 -2 -180 13 -15 7 -18 4 -18 -17 0 -29 29
-62 64 -71 13 -3 58 -4 100 -2 85 3 86 2 60 -60 -8 -20 -28 -82 -44 -138 -42
-151 -103 -264 -142 -264 -19 0 -20 4 -14 50 4 28 18 94 32 148 13 53 22 107
19 118 -6 25 -54 60 -65 47 -4 -4 -24 -57 -44 -118 -52 -153 -107 -245 -147
-245 -9 0 -19 10 -22 22 -14 53 56 286 144 477 48 103 49 131 8 165 -17 14
-34 26 -39 26 -4 0 -15 -19 -24 -42z m724 -367 c0 -44 -83 -244 -117 -283 -55
-62 -34 127 24 221 43 69 93 102 93 62z m220 -325 c-8 -8 -13 -7 -20 4 -13 21
-12 26 8 46 16 17 17 16 20 -10 2 -16 -1 -33 -8 -40z"/>
<path d="M1114 1465 c-8 -21 14 -45 42 -45 34 0 41 20 14 42 -27 22 -49 23
-56 3z"/>
<path d="M955 432 c-5 -4 -10 -46 -10 -95 0 -76 2 -87 18 -87 13 0 17 9 18 38
0 34 1 35 10 13 5 -14 7 -31 5 -38 -4 -10 12 -13 68 -13 l74 0 -5 43 c-3 31
-2 38 6 27 6 -8 11 -27 11 -42 0 -22 5 -28 21 -28 16 0 20 4 14 17 -19 51 -27
116 -16 140 14 30 14 33 -1 33 -7 0 -14 -12 -15 -26 0 -14 -7 -31 -13 -38 -10
-9 -11 -3 -7 27 l6 37 -47 0 -47 0 3 -90 c2 -57 0 -90 -7 -90 -9 0 -17 21 -34
99 -3 13 1 37 9 53 13 25 13 28 -1 28 -9 0 -15 -9 -15 -22 0 -13 -5 -30 -11
-38 -8 -11 -9 -6 -5 23 5 37 -5 47 -29 29z m145 -88 c0 -54 -4 -83 -10 -79
-11 7 -14 148 -3 158 12 13 13 7 13 -79z"/>
<path d="M1205 345 c0 -82 2 -95 17 -95 14 0 17 14 20 95 3 89 2 95 -17 95
-19 0 -20 -7 -20 -95z"/>
<path d="M1315 340 c0 -78 2 -90 17 -90 13 0 18 11 21 43 l4 42 1 -42 c2 -36
5 -43 22 -43 23 0 27 28 9 62 -8 14 -8 23 0 31 30 30 0 87 -47 87 l-27 0 0
-90z m42 18 c-2 -13 -4 -3 -4 22 0 25 2 35 4 23 2 -13 2 -33 0 -45z"/>
<path d="M825 335 l0 -85 33 0 c24 0 32 4 31 18 0 10 -3 12 -6 5 -2 -7 -9 -13
-15 -13 -6 0 -8 32 -6 80 3 74 2 80 -17 80 -18 0 -20 -7 -20 -85z"/>
<path d="M1415 338 c0 -46 5 -86 10 -90 6 -4 26 -8 45 -8 36 0 36 1 32 38 -2
28 -1 33 7 22 6 -8 11 -25 11 -37 0 -20 5 -23 43 -23 l42 0 0 75 c0 65 -2 75
-17 75 -15 0 -18 -10 -18 -70 0 -78 -11 -90 -28 -31 -15 47 -15 78 -2 86 15 9
12 25 -6 25 -8 0 -13 -3 -10 -8 2 -4 -2 -18 -10 -32 -15 -25 -15 -24 -10 13 4
31 2 37 -13 37 -10 0 -31 3 -47 6 l-29 6 0 -84z m55 -8 c0 -40 -4 -70 -10 -70
-6 0 -10 30 -10 70 0 40 4 70 10 70 6 0 10 -30 10 -70z"/>
<path d="M745 325 l0 -85 33 0 c26 0 32 4 32 22 0 21 0 21 -15 2 -13 -18 -14
-16 -15 23 0 34 3 41 15 37 10 -4 15 0 15 11 0 11 -5 15 -15 11 -11 -4 -15 2
-15 24 0 30 14 41 23 18 3 -8 6 -6 6 5 1 13 -7 17 -31 17 l-33 0 0 -85z"/>
<path d="M645 315 l0 -75 33 0 c37 0 52 25 52 85 0 54 -8 65 -49 65 l-36 0 0
-75z m42 -32 c-2 -21 -4 -6 -4 32 0 39 2 55 4 38 2 -18 2 -50 0 -70z"/>
<path d="M1278 343 c-14 -4 -33 -32 -26 -38 9 -8 48 17 48 30 0 8 -1 14 -2 14
-2 -1 -10 -3 -20 -6z"/>
</g>
</svg>
